<svg width="18" height="17" viewBox="0 0 18 17" fill="none" xmlns="http://www.w3.org/2000/svg">
<path d="M8.486 16.977C8.27933 16.977 8.114 16.915 7.99 16.791C7.866 16.667 7.804 16.5017 7.804 16.295V9.506H1.077C0.870333 9.506 0.705 9.444 0.581 9.32C0.457 9.196 0.395 9.03067 0.395 8.824V8.39C0.395 8.18333 0.457 8.018 0.581 7.894C0.705 7.77 0.870333 7.708 1.077 7.708H7.804V1.105C7.804 0.898333 7.866 0.732999 7.99 0.608998C8.114 0.484999 8.27933 0.422999 8.486 0.422999H8.951C9.15767 0.422999 9.323 0.484999 9.447 0.608998C9.571 0.732999 9.633 0.898333 9.633 1.105V7.708H16.391C16.5977 7.708 16.763 7.77 16.887 7.894C17.011 8.018 17.073 8.18333 17.073 8.39V8.824C17.073 9.03067 17.011 9.196 16.887 9.32C16.763 9.444 16.5977 9.506 16.391 9.506H9.633V16.295C9.633 16.5017 9.571 16.667 9.447 16.791C9.323 16.915 9.15767 16.977 8.951 16.977H8.486Z" fill="white"/>
</svg>
