<svg width="26" height="27" viewBox="0 0 26 27" fill="none" xmlns="http://www.w3.org/2000/svg">
<path d="M12.064 26.416C11.744 26.416 11.472 26.32 11.248 26.128C11.056 25.904 10.96 25.632 10.96 25.312V15.328H1.12C0.8 15.328 0.528 15.232 0.304 15.04C0.112 14.816 0.0160002 14.544 0.0160002 14.224V12.688C0.0160002 12.368 0.112 12.112 0.304 11.92C0.528 11.696 0.8 11.584 1.12 11.584H10.96V1.888C10.96 1.568 11.056 1.312 11.248 1.12C11.472 0.895999 11.744 0.783998 12.064 0.783998H13.744C14.064 0.783998 14.32 0.895999 14.512 1.12C14.736 1.312 14.848 1.568 14.848 1.888V11.584H24.736C25.056 11.584 25.312 11.696 25.504 11.92C25.728 12.112 25.84 12.368 25.84 12.688V14.224C25.84 14.544 25.728 14.816 25.504 15.04C25.312 15.232 25.056 15.328 24.736 15.328H14.848V25.312C14.848 25.632 14.736 25.904 14.512 26.128C14.32 26.32 14.064 26.416 13.744 26.416H12.064Z" fill="white"/>
</svg>
