<svg width="36" height="36" viewBox="0 0 36 36" fill="none" xmlns="http://www.w3.org/2000/svg">
<path d="M25.9008 10.3918L14.5574 21.7353L8.37785 15.573L5.9508 18L14.5574 26.6066L28.3278 12.8361L25.9008 10.3918ZM18 0.786896C8.49834 0.786896 0.786865 8.49837 0.786865 18C0.786865 27.5017 8.49834 35.2131 18 35.2131C27.5016 35.2131 35.2131 27.5017 35.2131 18C35.2131 8.49837 27.5016 0.786896 18 0.786896ZM18 31.7705C10.3918 31.7705 4.22949 25.6082 4.22949 18C4.22949 10.3918 10.3918 4.22952 18 4.22952C25.6082 4.22952 31.7705 10.3918 31.7705 18C31.7705 25.6082 25.6082 31.7705 18 31.7705Z" fill="white"/>
</svg>
