<svg width="26" height="19" viewBox="0 0 26 19" fill="none" xmlns="http://www.w3.org/2000/svg">
<path d="M13.0001 2.99999C17.4217 2.99999 21.3651 5.48499 23.2901 9.41666C21.3651 13.3483 17.4217 15.8333 13.0001 15.8333C8.57841 15.8333 4.63508 13.3483 2.71008 9.41666C4.63508 5.48499 8.57841 2.99999 13.0001 2.99999ZM13.0001 0.666656C7.16675 0.666656 2.18508 4.29499 0.166748 9.41666C2.18508 14.5383 7.16675 18.1667 13.0001 18.1667C18.8334 18.1667 23.8151 14.5383 25.8334 9.41666C23.8151 4.29499 18.8334 0.666656 13.0001 0.666656ZM13.0001 6.49999C14.6101 6.49999 15.9167 7.80666 15.9167 9.41666C15.9167 11.0267 14.6101 12.3333 13.0001 12.3333C11.3901 12.3333 10.0834 11.0267 10.0834 9.41666C10.0834 7.80666 11.3901 6.49999 13.0001 6.49999ZM13.0001 4.16666C10.1067 4.16666 7.75008 6.52332 7.75008 9.41666C7.75008 12.31 10.1067 14.6667 13.0001 14.6667C15.8934 14.6667 18.2501 12.31 18.2501 9.41666C18.2501 6.52332 15.8934 4.16666 13.0001 4.16666Z" fill="white"/>
</svg>
