<svg width="41" height="34" viewBox="0 0 41 34" fill="none" xmlns="http://www.w3.org/2000/svg">
<path d="M23.3186 0.573761C14.0071 0.573761 6.45679 7.9364 6.45679 17.0164H0.836182L8.12424 24.1233L8.25539 24.379L15.8245 17.0164H10.2039C10.2039 9.94606 16.068 4.22768 23.3186 4.22768C30.5692 4.22768 36.4334 9.94606 36.4334 17.0164C36.4334 24.0867 30.5692 29.8051 23.3186 29.8051C19.7027 29.8051 16.424 28.3618 14.0633 26.0416L11.4029 28.6358C14.4568 31.6138 18.6535 33.459 23.3186 33.459C32.6301 33.459 40.1804 26.0964 40.1804 17.0164C40.1804 7.9364 32.6301 0.573761 23.3186 0.573761ZM21.4451 9.70855V18.8433L29.4638 23.4838L30.8128 21.2732L24.2554 17.4731V9.70855H21.4451Z" fill="white"/>
</svg>
