<svg width="201" height="200" viewBox="0 0 201 200" fill="none" xmlns="http://www.w3.org/2000/svg">
<path d="M66.2177 0.14022C65.6227 0.225229 63.3699 0.607769 61.2022 0.990309C44.2005 3.71059 27.6237 15.3568 16.3601 32.4011C13.0872 37.3741 8.11423 47.2776 5.9465 53.2708C1.82358 64.5344 0.293419 72.7378 0.0383931 85.7442C-0.259138 99.6006 1.14351 109.292 5.26643 122.043C6.37155 125.316 8.36925 130.544 9.72939 133.647C11.132 136.707 12.2372 139.342 12.2372 139.47C12.2372 140.15 19.1654 151.584 22.0982 155.877C28.3463 164.845 33.9144 170.923 42.6278 178.361C48.9609 183.802 54.9116 187.627 63.0299 191.58C77.0989 198.423 86.4073 200.336 103.537 199.954C113.95 199.741 120.453 199.019 127.382 197.276C145.276 192.813 160.832 183.972 172.904 171.306C180.214 163.655 184.252 157.789 189.268 147.588C194.921 136.154 197.811 126.676 199.256 114.902C200.404 105.764 200.404 93.4375 199.256 84.8091C197.599 72.0152 195.346 65.342 187.823 50.678C185.655 46.4275 178.684 37.5016 173.711 32.5711C155.689 14.7617 130.357 4.09313 98.096 0.735282C93.293 0.225229 68.3004 -0.24232 66.2177 0.14022ZM95.8858 13.6991C118.371 16.1219 136.775 22.1575 152.672 32.3586C157.942 35.7164 165.678 42.6872 169.673 47.7027C175.029 54.4184 177.367 58.2013 180.257 64.917C190.118 87.7844 189.693 113.882 179.067 138.96C174.731 149.246 165.763 161.02 156.54 168.628C152.459 171.986 145.318 176.534 141.45 178.319C139.708 179.084 137.498 180.104 136.562 180.529C134.607 181.379 127.977 183.547 124.236 184.524C115.523 186.777 101.199 187.882 92.9955 186.947C81.0943 185.587 69.5756 181.294 59.2045 174.366C48.1109 166.97 39.1424 157.832 31.5766 146.313C24.4359 135.389 20.228 126.336 16.7001 114.137C10.4095 92.6299 11.5996 73.6729 20.568 52.3357C23.5008 45.2799 29.5789 35.7589 34.552 30.4884C40.0775 24.6228 48.9184 18.5871 55.6766 16.1219C58.822 14.9318 64.475 13.5291 67.7054 13.0616C71.3608 12.509 88.7451 12.9341 95.8858 13.6991Z" fill="#4CAF50"/>
<path d="M78.3319 25.0056C73.954 25.5156 66.8557 27.2583 62.8178 28.831C58.3124 30.5736 51.3416 34.6541 47.8563 37.5444C33.4473 49.6581 25.6265 69.1677 24.6914 95.3079C24.3089 106.274 25.4565 113.84 28.8993 122.936C30.897 128.334 35.19 136.027 38.5053 140.193C42.2882 144.996 50.024 152.646 53.6794 155.239C55.3371 156.387 56.7397 157.449 56.8672 157.619C57.2923 158.257 64.093 162.252 68.1734 164.293C94.3136 177.384 122.919 178.999 143.576 168.628C149.654 165.568 150.717 164.93 153.947 162.252C164.956 153.241 171.757 141.128 174.392 125.911C175.922 117.198 175.624 101.301 173.712 89.9949C172.394 82.2165 169.801 73.0356 167.464 67.8925C166.996 66.8299 166.103 64.8747 165.551 63.5571C163.766 59.5192 158.538 52.2084 154.202 47.7454C147.784 41.1147 141.153 36.4818 132.865 32.9114C124.322 29.2135 115.863 26.9608 105.28 25.6006C99.2866 24.793 82.9224 24.453 78.3319 25.0056ZM105.62 38.947C115.056 40.3497 123.684 42.8574 129.72 45.8752C132.313 47.1929 139.581 51.9109 140.388 52.8035C140.643 53.0585 141.578 53.8661 142.514 54.5887C144.724 56.2888 150.037 63.132 152.63 67.5525C161.811 83.4492 165.083 114.052 159.515 131.352C157.178 138.535 153.99 143.848 148.932 148.906C144.639 153.156 140.686 155.792 135.16 158.002C123.344 162.762 110.168 163.528 95.6312 160.297C70.4686 154.729 49.599 138.832 41.7782 119.323C38.4628 111.035 37.4852 105.254 37.8678 95.5204C38.2928 84.7243 39.6104 76.776 42.2457 69.1252C47.5162 53.7811 56.8247 44.3451 70.8937 40.0946C74.0815 39.1595 76.2917 38.692 81.3072 37.9694C84.4526 37.5019 100.264 38.1394 105.62 38.947Z" fill="#4CAF50"/>
<path d="M92.5711 50.0828C85.3453 51.0179 78.7146 52.8456 72.3815 55.6934C60.7778 60.8364 53.5095 68.6572 50.6617 78.9858C49.5991 82.7687 49.5991 92.6723 50.6192 97.5603C54.3596 114.817 66.3884 131.436 81.945 140.872C96.949 149.968 113.143 152.604 126.575 148.183C136.138 145.038 143.024 139.002 146.977 130.246C152.672 117.622 151.057 97.4328 142.939 80.0059C135.5 63.9393 122.154 52.8881 107.15 50.2528C103.24 49.5727 97.0765 49.4877 92.5711 50.0828ZM109.275 64.3643C114.503 66.192 117.266 67.9772 121.687 72.3551C129.89 80.4735 134.65 90.632 136.563 104.106C139.071 121.873 133.928 132.669 121.262 136.069C106.47 140.022 87.8106 132.414 74.9742 117.24C69.6187 110.864 66.7284 105.849 64.7732 99.3455C60.6928 85.7865 63.158 76.8181 72.764 70.3999C79.9473 65.5969 91.0409 62.6641 100.859 62.9616C104.727 63.0892 106.172 63.3017 109.275 64.3643Z" fill="#4CAF50"/>
<path d="M88.0653 75.5007C77.7367 78.4335 72.6362 88.4646 75.569 100.026C78.5868 111.927 88.1078 121.363 100.094 124.466C109.7 126.889 119.179 123.403 122.919 115.965C126.404 109.079 125.937 100.876 121.601 92.375C119.986 89.2297 118.838 87.742 115.523 84.4267C111.91 80.7713 110.975 80.0912 107.022 78.1785C99.924 74.7782 93.7184 73.8856 88.0653 75.5007ZM98.1813 88.5496C101.327 89.5697 105.917 93.0551 108.297 96.2854C111.06 99.9833 112.123 102.831 112.123 106.401C112.123 109.037 112.038 109.292 110.678 110.652C109.317 112.012 109.062 112.097 106.427 112.097C102.942 112.097 100.307 111.119 96.5662 108.484C91.6782 104.999 87.9378 98.8782 87.8103 94.2027C87.7678 91.6524 88.4903 89.8247 89.9355 88.8896C92.1882 87.4445 94.2709 87.3595 98.1813 88.5496Z" fill="#4CAF50"/>
</svg>
