<svg width="60" height="60" viewBox="0 0 60 60" fill="none" xmlns="http://www.w3.org/2000/svg">
<path d="M51.21 8.79L46.98 13.02C51.3 17.37 54 23.37 54 30C54 43.26 43.26 54 30 54C16.74 54 6 43.26 6 30C6 17.76 15.15 7.68 27 6.21V12.27C18.48 13.71 12 21.09 12 30C12 39.93 20.07 48 30 48C39.93 48 48 39.93 48 30C48 25.02 45.99 20.52 42.72 17.28L38.49 21.51C40.65 23.7 42 26.7 42 30C42 36.63 36.63 42 30 42C23.37 42 18 36.63 18 30C18 24.42 21.84 19.77 27 18.42V24.84C25.2 25.89 24 27.78 24 30C24 33.3 26.7 36 30 36C33.3 36 36 33.3 36 30C36 27.78 34.8 25.86 33 24.84V0H30C13.44 0 0 13.44 0 30C0 46.56 13.44 60 30 60C46.56 60 60 46.56 60 30C60 21.72 56.64 14.22 51.21 8.79Z" fill="#4CAF50"/>
</svg>
