<svg width="200" height="200" viewBox="0 0 200 200" fill="none" xmlns="http://www.w3.org/2000/svg">
<path d="M15.7828 35.995L19.0657 31.4322C20.202 29.7845 21.5908 29.531 22.8535 30.4183C23.6112 30.9252 23.7373 31.8125 23.6112 32.4462C24.2425 31.9392 25.2525 31.8125 26.2627 32.5728C27.5253 33.46 27.6515 34.981 26.5152 36.6287L22.9798 41.1913L15.7828 35.995ZM18.8132 35.1077L19.9495 35.8682L21.4647 33.8403C21.8435 33.46 21.8435 33.0798 21.4647 32.6997C21.0858 32.4462 20.707 32.5728 20.4545 32.9532L18.8132 35.1077ZM21.5908 37.0088L22.8535 37.896L24.3687 35.8682C24.7475 35.3612 24.7475 34.8542 24.3687 34.6008C23.9898 34.3473 23.4848 34.474 23.106 34.981L21.5908 37.0088ZM25.6313 30.038C23.6112 28.1368 23.7373 25.3485 25.6313 23.3207C27.5253 21.4195 30.303 21.0393 32.3232 23.0672C34.3435 24.9683 34.2172 27.7567 32.3232 29.7845C30.4293 31.6857 27.6515 31.9392 25.6313 30.038ZM30.4293 24.9683C29.4192 24.0812 28.1565 23.9543 27.2727 24.9683C26.3888 25.9823 26.5152 27.2497 27.399 28.1368C28.4092 29.024 29.6717 29.1508 30.5555 28.1368C31.5657 27.123 31.4393 25.8555 30.4293 24.9683ZM31.1868 17.9975L35.4798 14.5753C37.1212 13.308 38.7627 13.308 40.0253 14.9557C41.2878 16.6033 40.9092 18.1242 39.2677 19.3917L36.995 21.166L38.7627 23.4473L36.7425 24.9683L31.1868 17.9975ZM34.596 18.251L35.606 19.5183L37.6263 17.8707C38.1313 17.4905 38.2575 16.9835 37.8788 16.6033C37.5 16.223 37.1212 16.0963 36.6162 16.6033L34.596 18.251ZM42.4242 15.2092C41.0353 12.6743 42.0455 10.1395 44.4445 8.872C46.8435 7.6045 49.495 8.1115 50.8838 10.6463C52.1465 13.0545 51.2627 15.7162 48.8637 16.9835C46.4647 18.251 43.8132 17.6172 42.4242 15.2092ZM48.6112 11.787C47.9798 10.6463 46.7172 10.1395 45.5808 10.7732C44.4445 11.4068 44.192 12.6743 44.8232 13.9417C45.4545 15.2092 46.7172 15.5893 47.8535 14.9557C48.9898 14.322 49.2425 12.9278 48.6112 11.787ZM59.4697 8.6185L55.8082 9.886L56.8182 13.0545L54.4192 13.9417L51.5152 5.45L53.9142 4.56267L54.9242 7.73133L58.5858 6.46383L57.5758 3.29533L59.9748 2.40817L62.8788 10.8998L60.4798 11.787L59.4697 8.6185ZM63.6363 1.64767L71.2122 0.380166L71.5908 2.40817L66.5403 3.29533L66.6667 4.436L69.697 3.929L70.0758 6.08367L67.0455 6.59067L67.298 7.98483L72.8535 7.09767L73.2323 9.25217L65.1515 10.5197L63.6363 1.64767ZM77.5253 4.436L73.7373 0H76.6415L79.798 3.6755V0H82.197V3.6755L85.3535 0H88.2575L84.596 4.1825L88.3838 8.99867H85.2273L82.3232 5.32317V9.1255H79.9242V5.32317L76.7677 9.1255H73.7373L77.5253 4.436ZM89.2677 4.81617C89.394 2.15467 91.5405 0.2535 94.192 0.507C97.2222 0.7605 98.106 2.915 98.2323 3.929L95.707 3.6755C95.5808 3.422 95.202 2.78833 94.0657 2.66167C92.803 2.53483 91.9192 3.54883 91.9192 4.81617C91.9192 6.08367 92.5505 7.22433 93.8132 7.22433C94.9495 7.351 95.4545 6.71733 95.5808 6.46383L98.2323 6.59067C97.9798 7.47783 96.8435 9.6325 93.6868 9.379C90.7828 9.50567 89.0152 7.47783 89.2677 4.81617ZM100.758 1.14067L103.283 1.52083L102.778 5.1965L106.818 1.90117L110.101 2.40817L105.429 6.08367L109.091 11.2802L105.682 10.7732L102.652 6.33717L102.147 10.2662L99.6212 9.886L100.758 1.14067ZM111.995 2.66167L114.52 3.1685L113.384 8.49183L118.308 3.929L120.833 4.436L118.939 13.308L116.414 12.801L117.55 7.47783L112.626 11.9138L110.101 11.4068L111.995 2.66167ZM123.611 5.32317L126.136 6.08367L124.621 11.2802L129.924 7.22433L132.45 7.98483L129.924 16.6033L127.399 15.8428L128.914 10.6463L123.611 14.7022L121.086 13.9417L123.611 5.32317ZM129.293 4.05583L131.187 4.436V4.56267C130.808 5.7035 129.924 6.46383 128.283 5.95683C126.642 5.45 126.263 4.30933 126.642 3.1685V3.04183L128.409 3.54883V3.6755C128.283 3.929 128.409 4.1825 128.788 4.30933C129.04 4.56267 129.293 4.30933 129.293 4.05583ZM140.783 11.0267L148.107 14.4487L147.222 16.4765L142.298 14.1952L139.52 20.4055L137.121 19.2648L140.783 11.0267ZM147.602 19.2648C148.99 16.8568 151.768 16.3498 154.04 17.744C156.313 19.1382 157.323 21.7997 155.808 24.2078C154.42 26.616 151.642 27.123 149.368 25.7288C147.097 24.3347 146.212 21.673 147.602 19.2648ZM153.662 22.8137C154.293 21.673 154.167 20.4055 152.903 19.6452C151.768 19.0113 150.505 19.3917 149.873 20.5323C149.242 21.673 149.368 22.9405 150.632 23.7008C151.768 24.3347 153.03 23.9543 153.662 22.8137ZM157.323 25.095C158.965 22.9405 161.617 22.5602 163.888 24.2078C166.288 26.109 165.908 28.3903 165.403 29.2775L163.258 27.7567C163.258 27.5032 163.258 26.7427 162.373 26.109C161.363 25.3485 160.102 25.7288 159.343 26.7427C158.587 27.7567 158.587 29.024 159.597 29.7845C160.48 30.4182 161.237 30.1648 161.49 30.1648L163.637 31.6857C163.005 32.3193 160.858 33.5868 158.333 31.6857C156.06 29.9113 155.808 27.2497 157.323 25.095ZM163.637 35.7415L167.045 34.8542L168.308 27.7567L170.58 29.9113L169.823 34.0938L173.863 32.9532L175.883 34.8542L165.783 37.6427L163.637 35.7415ZM182.323 42.9658L177.147 47.1483L177.903 48.1622L174.622 50.8238L173.107 49.0495L174.747 47.782L170.96 43.0925L169.318 44.36L167.803 42.5855L171.087 39.924L171.592 40.6843C172.222 40.5577 172.98 40.3042 174.242 39.5437L177.525 37.3892L182.323 42.9658ZM179.04 42.332L177.398 40.3042L175.883 41.1913C174.622 41.9518 173.863 42.2053 173.358 42.332L175.505 44.9937L179.04 42.332ZM181.313 55.7668L179.293 52.3447L177.903 52.5982L176.515 50.3168L186.112 49.0495L187.5 51.4575L181.692 59.3157L180.303 56.9075L181.313 55.7668ZM182.702 53.8657L184.47 51.5843L181.565 51.9645L182.702 53.8657ZM190.657 56.7807L192.803 61.8505C193.56 63.7517 193.182 65.2725 191.288 66.1597C189.393 67.0468 188.005 66.1597 187.247 64.2585L186.112 61.597L183.46 62.7377L182.45 60.3295L190.657 56.7807ZM189.647 60.076L188.132 60.7098L189.142 63.1178C189.393 63.7517 189.773 63.8783 190.278 63.7517C190.783 63.4982 190.908 63.1178 190.657 62.4842L189.647 60.076ZM190.53 68.3143C193.055 67.5538 195.455 68.8213 196.212 71.6097C197.097 74.5247 195.328 76.1723 194.318 76.6793L193.56 74.1445C193.687 73.891 194.192 73.384 193.94 72.2433C193.56 70.976 192.425 70.5957 191.162 70.976C189.898 71.3562 189.142 72.3702 189.52 73.5108C189.773 74.5247 190.53 74.7782 190.783 74.905L191.54 77.4398C190.657 77.5665 188.258 77.1863 187.373 74.1445C186.617 71.4828 188.005 69.0748 190.53 68.3143ZM197.727 77.6933L199.242 86.692L197.097 87.0723L196.592 83.9037L189.898 85.0443L189.52 82.5095L196.212 81.3688L195.707 78.2003L197.727 77.6933ZM199.495 89.2268L199.747 94.8035C199.873 96.7047 198.99 97.8453 197.475 97.9722C196.592 97.9722 195.96 97.4652 195.58 96.8315C195.328 97.5918 194.697 98.3523 193.435 98.3523C191.92 98.4792 190.783 97.4652 190.657 95.3105L190.403 89.6072L199.495 89.2268ZM194.192 92.0152L192.677 92.142L192.803 94.6768C192.803 95.3105 193.055 95.6908 193.687 95.6908C194.192 95.6908 194.445 95.3105 194.445 94.55L194.192 92.0152ZM197.602 91.8885L196.212 92.0152L196.338 94.55C196.338 95.057 196.592 95.4373 197.097 95.4373C197.602 95.4373 197.727 95.057 197.727 94.55L197.602 91.8885ZM200 100.507L199.622 108.238L197.602 108.112L197.853 102.915H196.717L196.592 105.957L194.445 105.83L194.57 102.788H193.182L192.93 108.492L190.783 108.365L191.162 100.127L200 100.507ZM192.803 116.73L193.435 112.928L190.152 112.421L190.53 109.886L199.368 111.28L198.99 113.815L195.707 113.308L195.075 117.11L198.358 117.617L197.98 120.152L189.142 118.758L189.52 116.223L192.803 116.73ZM190.278 127.883L191.288 124.208L188.005 123.321L188.637 120.786L197.348 123.194L196.717 125.729L193.435 124.842L192.425 128.517L195.707 129.404L195.075 131.939L186.363 129.531L186.995 126.996L190.278 127.883ZM190.403 143.726L189.393 146.134L181.06 142.712L182.07 140.304L190.403 143.726ZM189.647 138.783C188.763 140.811 187.373 141.572 185.353 140.811C183.333 140.051 182.955 138.403 183.712 136.375L185.732 131.432L194.065 134.854L193.055 137.262L190.657 136.249L189.647 138.783ZM188.637 135.361L186.868 134.601L185.985 136.755C185.732 137.516 185.858 137.896 186.363 138.149C186.868 138.403 187.373 138.15 187.627 137.389L188.637 135.361ZM187.878 149.05L186.617 151.33L181.945 148.542L184.597 154.753L183.333 157.035L175.632 152.472L176.893 150.19L181.565 152.978L178.913 146.768L180.177 144.487L187.878 149.05ZM187.627 154.88L186.742 156.527L186.617 156.4C185.607 155.767 185.102 154.627 185.985 153.232C186.868 151.838 188.132 151.712 189.142 152.218L189.268 152.345L188.258 153.992H188.132C187.878 153.865 187.627 153.865 187.373 154.247C187.247 154.5 187.5 154.753 187.627 154.88ZM172.097 163.118C170.328 161.217 169.823 159.823 171.592 157.795L171.717 157.668L173.612 159.315L173.485 159.442C172.98 160.077 173.107 160.583 173.737 161.343L177.147 165.018L172.222 170.722L165.403 164.765L167.045 162.865L172.097 167.3L173.863 165.273L172.097 163.118ZM170.075 173.003L164.393 178.2L163.005 176.68L166.793 173.257L166.035 172.37L163.763 174.398L162.373 172.75L164.647 170.722L163.763 169.708L159.597 173.51L158.08 171.863L164.142 166.287L170.075 173.003ZM159.722 176.172C161.237 178.327 160.858 181.115 158.587 182.637C156.06 184.41 153.913 183.27 153.283 182.51L155.43 180.988C155.682 181.115 156.44 181.368 157.323 180.735C158.333 179.975 158.333 178.707 157.702 177.693C156.945 176.68 155.808 176.172 154.672 176.933C153.788 177.567 153.788 178.327 153.788 178.58L151.642 180.102C151.263 179.342 150.758 176.933 153.283 175.032C155.555 173.383 158.207 173.892 159.722 176.172ZM150.883 182.257C152.147 184.792 151.137 187.325 148.737 188.593C146.338 189.86 143.687 189.227 142.298 186.692C141.035 184.283 142.046 181.622 144.445 180.355C146.97 179.087 149.622 179.722 150.883 182.257ZM144.697 185.552C145.328 186.692 146.465 187.198 147.727 186.565C148.863 185.932 149.242 184.663 148.612 183.523C147.98 182.383 146.843 181.875 145.581 182.51C144.445 183.017 144.192 184.283 144.697 185.552ZM142.551 191.635L134.091 194.93L133.333 192.902L136.364 191.762L133.965 185.425L136.364 184.537L138.763 190.875L141.793 189.733L142.551 191.635ZM131.692 195.563L124.243 197.465L123.737 195.437L128.662 194.17L128.409 193.028L125.505 193.79L125 191.762L127.904 191.002L127.525 189.607L122.096 191.002L121.591 188.847L129.546 186.818L131.692 195.563ZM116.162 192.522L118.056 189.48L121.086 189.1L117.929 194.17L122.222 198.098L118.939 198.607L116.54 196.452L114.899 199.24L111.869 199.747L114.899 194.93L110.48 190.875L113.636 190.368L116.162 192.522ZM102.904 194.297L106.692 194.17L106.566 190.748L109.091 190.622L109.47 199.62L106.945 199.747L106.818 196.325L103.03 196.452L103.157 199.873L100.631 200L100.253 191.002L102.778 190.875L102.904 194.297ZM97.4747 200L94.9495 199.747L95.4545 194.297L91.0353 199.367L88.5102 199.113L89.2677 190.113L91.793 190.368L91.2878 195.69L95.707 190.622L98.2323 190.875L97.4747 200ZM80.6818 191.635C80.9343 191.635 81.1868 191.635 81.4393 191.762C81.8182 191.762 82.4495 191.888 82.9545 192.015C85.3535 192.522 86.4898 193.79 85.8587 196.452L85.3535 198.987L82.8283 198.352L83.3333 195.818C83.5858 194.803 83.207 194.423 82.197 194.17C81.692 194.043 81.1868 193.917 80.8082 193.917H80.1768L79.293 197.592L76.7677 196.958L78.7878 188.213L81.3132 188.847L80.6818 191.635ZM73.7373 195.818L66.5403 193.157L67.298 191.255L72.096 193.028L72.4748 191.888L69.5707 190.875L70.3283 188.847L73.2323 189.86L73.7373 188.593L68.4343 186.565L69.192 184.537L76.894 187.452L73.7373 195.818ZM66.1617 188.087C64.899 190.495 62.3737 191.382 59.8485 190.113C57.0707 188.72 57.197 186.312 57.4495 185.298L59.7222 186.565C59.7222 186.818 59.8485 187.58 60.8587 188.087C61.995 188.72 63.1313 188.087 63.7627 186.945C64.394 185.805 64.1413 184.537 63.005 183.903C61.995 183.397 61.3637 183.777 61.1112 183.903L58.8383 182.637C59.3435 182.003 61.2373 180.355 64.1413 181.875C66.6667 183.143 67.4242 185.678 66.1617 188.087ZM53.9142 186.565L51.7677 185.045L53.9142 182.003L48.8637 183.143L46.0858 181.242L51.894 179.975L51.0102 173.638L53.9142 175.665L54.6717 180.988L56.8182 177.693L58.9647 179.215L53.9142 186.565ZM44.4445 179.848L42.4242 178.2L45.9597 174.145L39.394 175.665L37.3737 174.018L43.1818 167.173L45.202 168.822L41.6667 172.877L48.2323 171.357L50.2525 173.003L44.4445 179.848ZM29.798 169.962L28.4092 168.695L28.5353 168.568C29.4192 167.807 30.6818 167.553 31.8182 168.822C32.9545 170.088 32.702 171.357 31.8182 172.117L31.692 172.243L30.4293 170.85L30.5555 170.722C30.8082 170.468 30.8082 170.215 30.5555 169.962C30.303 169.708 30.0505 169.835 29.798 169.962ZM35.3535 171.863L33.5858 169.962L37.5 166.287L30.8082 167.047L29.0403 165.145L35.606 159.062L37.3737 160.963L33.4597 164.638L40.0253 163.878L41.793 165.78L35.3535 171.863ZM30.5555 152.472L27.0202 152.725L24.3687 159.442L22.601 156.907L24.1162 152.978L19.9495 153.232L18.308 150.95L28.7878 150.317L30.5555 152.472ZM19.3182 140.811L21.2122 144.107L24.1162 142.459L25.3788 144.74L17.5505 149.177L16.2878 146.895L19.192 145.247L17.298 141.952L14.394 143.6L13.1313 141.318L20.9597 136.882L22.2222 139.164L19.3182 140.811ZM11.8687 138.657L10.8587 136.249L15.7828 134.094L9.21717 132.7L8.207 130.292L16.4142 126.616L17.4242 129.024L12.5 131.179L19.0657 132.573L20.0758 134.981L11.8687 138.657ZM7.197 127.503L5.42933 122.18C4.798 120.279 5.42933 119.011 6.81817 118.504C7.702 118.251 8.45967 118.631 8.83833 119.138C8.83833 118.378 9.3435 117.491 10.4798 117.11C11.995 116.603 13.2575 117.364 13.8888 119.265L15.6565 124.588L7.197 127.503ZM8.33333 124.461L9.596 124.081L8.83833 121.673C8.71217 121.166 8.45967 120.913 7.9545 121.039C7.4495 121.166 7.4495 121.546 7.57583 122.053L8.33333 124.461ZM11.4898 123.321L13.005 122.814L12.2475 120.406C11.995 119.772 11.7425 119.518 11.1112 119.645C10.606 119.772 10.4798 120.279 10.7323 120.912L11.4898 123.321ZM3.78783 116.73L2.02017 109.126L4.04033 108.619L5.17683 113.688L6.31317 113.435L5.68183 110.393L7.702 109.886L8.33333 112.928L9.72217 112.674L8.45967 107.224L10.606 106.717L12.5 114.702L3.78783 116.73ZM1.51517 106.21L0.7575 100.761C0.505 98.7325 1.38883 97.3383 3.40917 97.085C5.42933 96.8315 6.56567 97.9722 6.81817 100L7.197 102.915L10.101 102.535L10.4798 105.07L1.51517 106.21ZM3.40917 103.422L5.0505 103.169L4.67167 100.507C4.5455 99.8733 4.293 99.493 3.78783 99.6198C3.28283 99.7465 3.03033 100 3.1565 100.761L3.40917 103.422ZM4.67167 95.1838C2.02017 95.1838 0 93.4093 0 90.621C0 87.5792 2.02017 86.4385 3.03033 86.3118V88.9733C2.77783 89.1002 2.1465 89.6072 2.27267 90.621C2.27267 91.8885 3.40917 92.649 4.67167 92.649C5.93433 92.649 6.9445 91.8885 6.9445 90.621C6.9445 89.4803 6.31317 89.1002 6.06067 88.9733V86.3118C6.9445 86.4385 9.21717 87.3257 9.21717 90.621C9.3435 93.2827 7.32317 95.1838 4.67167 95.1838ZM0.126334 83.6502L0.378834 81.1153L5.808 81.749L0.883834 77.1863L1.13633 74.6515L10.101 75.6653L9.8485 78.2003L4.5455 77.5665L9.46967 82.1293L9.21717 84.6642L0.126334 83.6502ZM1.64133 72.1167L3.66167 63.2447L5.808 63.7517L5.0505 66.9202L11.6162 68.3143L10.9848 70.8492L4.41917 69.3283L3.66167 72.4968L1.64133 72.1167ZM4.293 60.8365L6.81817 53.4855L8.83833 54.1192L7.197 58.9353L8.33333 59.3157L9.3435 56.4005L11.3637 57.161L10.3535 60.076L11.6162 60.583L13.5102 55.2598L15.5303 56.0203L12.8788 63.8783L4.293 60.8365ZM7.702 51.204L11.6162 42.9658L13.6363 43.9797L12.2475 46.8948L18.308 49.8098L17.1717 52.0913L11.1112 49.303L9.72217 52.218L7.702 51.204ZM100 180C54.25 180 20 132.5 20 90C20 74.75 25.25 58 34 45.125C41.875 33.75 56.125 20 80 20C112.625 20 138.125 27.875 155.75 43.5C171.625 57.625 180 77.125 180 100C180 120.25 172.875 140.125 160.375 154.375C145.75 171.125 124.875 180 100 180ZM80 30C60.5 30 48.75 41.375 42.25 50.875C33.25 64 30 79.75 30 90C30 108.75 37.75 129.125 50.5 144.625C64.25 161 81.75 170 100 170C148.125 170 170 133.75 170 100C170 56.125 136.375 30 80 30ZM110 160C94 160 76.625 154.125 63.5 144.25C48.375 132.75 40 117.125 40 100C40 61.875 58.25 40 90 40C136.5 40 160 63.5 160 110C160 125.875 154.875 138.875 145.125 147.75C136.25 155.75 124.125 160 110 160ZM90 50C71.75 50 50 58.625 50 100C50 129.5 81.625 150 110 150C135 150 150 135 150 110C150 69.125 130.875 50 90 50ZM110 140C98.625 140 85.875 134.375 76.125 125C65.875 115.125 60 102.375 60 90C60 79.5 65.5 71.125 76 65.75C84.125 61.5 93.75 60 100 60C124.75 60 140 86 140 110C140 132.125 124.5 140 110 140ZM100 70C92.25 70 70 73.625 70 90C70 111.125 92.375 130 110 130C119.125 130 130 126.5 130 110C130 90.75 118.5 70 100 70ZM105 120C92.375 120 80 107.625 80 95C80 85.125 87.5 80 95 80C107.875 80 120 92.125 120 105C120 113.875 113.875 120 105 120ZM95 90C93.875 90 90 90.375 90 95C90 102.125 97.875 110 105 110C108.375 110 110 108.375 110 105C110 97.875 102.125 90 95 90Z" fill="#4CAF50"/>
</svg>
